<mxfile host="Electron" modified="2023-12-02T19:37:03.660Z" agent="Mozilla/5.0 (Windows NT 10.0; Win64; x64) AppleWebKit/537.36 (KHTML, like Gecko) draw.io/21.2.8 Chrome/112.0.5615.165 Electron/24.2.0 Safari/537.36" etag="Dovhro_DWLW2vHOg57Rz" version="21.2.8" type="device">
  <diagram id="C5RBs43oDa-KdzZeNtuy" name="Page-1">
    <mxGraphModel dx="2485" dy="2037" grid="1" gridSize="10" guides="1" tooltips="1" connect="1" arrows="1" fold="1" page="1" pageScale="1" pageWidth="827" pageHeight="1169" math="0" shadow="0">
      <root>
        <mxCell id="WIyWlLk6GJQsqaUBKTNV-0" />
        <mxCell id="WIyWlLk6GJQsqaUBKTNV-1" parent="WIyWlLk6GJQsqaUBKTNV-0" />
        <mxCell id="zD_6RhIeCDicJwW1CbTD-2" style="edgeStyle=orthogonalEdgeStyle;rounded=0;orthogonalLoop=1;jettySize=auto;html=1;exitX=0.5;exitY=1;exitDx=0;exitDy=0;entryX=0.5;entryY=0;entryDx=0;entryDy=0;" parent="WIyWlLk6GJQsqaUBKTNV-1" source="WIyWlLk6GJQsqaUBKTNV-3" target="03fbT5xsQfeBrdXa9sgE-0" edge="1">
          <mxGeometry relative="1" as="geometry" />
        </mxCell>
        <mxCell id="WIyWlLk6GJQsqaUBKTNV-3" value="Select Mode&amp;nbsp;" style="rounded=1;whiteSpace=wrap;html=1;fontSize=12;glass=0;strokeWidth=1;shadow=0;" parent="WIyWlLk6GJQsqaUBKTNV-1" vertex="1">
          <mxGeometry x="320" y="20" width="120" height="40" as="geometry" />
        </mxCell>
        <mxCell id="03fbT5xsQfeBrdXa9sgE-65" style="edgeStyle=orthogonalEdgeStyle;rounded=0;orthogonalLoop=1;jettySize=auto;html=1;exitX=1;exitY=0.5;exitDx=0;exitDy=0;entryX=0.5;entryY=0;entryDx=0;entryDy=0;" parent="WIyWlLk6GJQsqaUBKTNV-1" source="03fbT5xsQfeBrdXa9sgE-0" target="03fbT5xsQfeBrdXa9sgE-63" edge="1">
          <mxGeometry relative="1" as="geometry" />
        </mxCell>
        <mxCell id="03fbT5xsQfeBrdXa9sgE-68" style="edgeStyle=orthogonalEdgeStyle;rounded=0;orthogonalLoop=1;jettySize=auto;html=1;exitX=0;exitY=0.5;exitDx=0;exitDy=0;entryX=0.5;entryY=0;entryDx=0;entryDy=0;" parent="WIyWlLk6GJQsqaUBKTNV-1" source="03fbT5xsQfeBrdXa9sgE-0" target="03fbT5xsQfeBrdXa9sgE-67" edge="1">
          <mxGeometry relative="1" as="geometry" />
        </mxCell>
        <mxCell id="03fbT5xsQfeBrdXa9sgE-0" value="Ultrasonic&amp;nbsp;&lt;br&gt;MODE?" style="rhombus;whiteSpace=wrap;html=1;" parent="WIyWlLk6GJQsqaUBKTNV-1" vertex="1">
          <mxGeometry x="330" y="100" width="100" height="90" as="geometry" />
        </mxCell>
        <mxCell id="03fbT5xsQfeBrdXa9sgE-33" value="" style="edgeStyle=orthogonalEdgeStyle;rounded=0;orthogonalLoop=1;jettySize=auto;html=1;" parent="WIyWlLk6GJQsqaUBKTNV-1" source="03fbT5xsQfeBrdXa9sgE-5" target="03fbT5xsQfeBrdXa9sgE-9" edge="1">
          <mxGeometry relative="1" as="geometry" />
        </mxCell>
        <mxCell id="03fbT5xsQfeBrdXa9sgE-3" value="Recive command" style="rounded=1;whiteSpace=wrap;html=1;" parent="WIyWlLk6GJQsqaUBKTNV-1" vertex="1">
          <mxGeometry x="590" y="310" width="120" height="60" as="geometry" />
        </mxCell>
        <mxCell id="03fbT5xsQfeBrdXa9sgE-7" value="" style="edgeStyle=orthogonalEdgeStyle;rounded=0;orthogonalLoop=1;jettySize=auto;html=1;" parent="WIyWlLk6GJQsqaUBKTNV-1" source="03fbT5xsQfeBrdXa9sgE-5" target="03fbT5xsQfeBrdXa9sgE-6" edge="1">
          <mxGeometry relative="1" as="geometry" />
        </mxCell>
        <mxCell id="03fbT5xsQfeBrdXa9sgE-108" style="edgeStyle=orthogonalEdgeStyle;rounded=0;orthogonalLoop=1;jettySize=auto;html=1;exitX=1;exitY=0.5;exitDx=0;exitDy=0;" parent="WIyWlLk6GJQsqaUBKTNV-1" source="03fbT5xsQfeBrdXa9sgE-6" edge="1">
          <mxGeometry relative="1" as="geometry">
            <mxPoint x="909.9999999999998" y="429.8387096774193" as="targetPoint" />
          </mxGeometry>
        </mxCell>
        <mxCell id="03fbT5xsQfeBrdXa9sgE-6" value="WHEEL_MoveForward" style="rounded=1;whiteSpace=wrap;html=1;" parent="WIyWlLk6GJQsqaUBKTNV-1" vertex="1">
          <mxGeometry x="710" y="420" width="150" height="20" as="geometry" />
        </mxCell>
        <mxCell id="03fbT5xsQfeBrdXa9sgE-8" value="" style="edgeStyle=orthogonalEdgeStyle;rounded=0;orthogonalLoop=1;jettySize=auto;html=1;" parent="WIyWlLk6GJQsqaUBKTNV-1" source="03fbT5xsQfeBrdXa9sgE-9" target="03fbT5xsQfeBrdXa9sgE-10" edge="1">
          <mxGeometry relative="1" as="geometry" />
        </mxCell>
        <mxCell id="03fbT5xsQfeBrdXa9sgE-40" style="edgeStyle=orthogonalEdgeStyle;rounded=0;orthogonalLoop=1;jettySize=auto;html=1;exitX=0.5;exitY=1;exitDx=0;exitDy=0;entryX=0.5;entryY=0;entryDx=0;entryDy=0;" parent="WIyWlLk6GJQsqaUBKTNV-1" source="03fbT5xsQfeBrdXa9sgE-9" target="03fbT5xsQfeBrdXa9sgE-12" edge="1">
          <mxGeometry relative="1" as="geometry" />
        </mxCell>
        <mxCell id="03fbT5xsQfeBrdXa9sgE-9" value="&lt;br&gt;command&lt;br style=&quot;border-color: var(--border-color);&quot;&gt;==&lt;br style=&quot;border-color: var(--border-color);&quot;&gt;&#39; &#39;" style="rhombus;whiteSpace=wrap;html=1;" parent="WIyWlLk6GJQsqaUBKTNV-1" vertex="1">
          <mxGeometry x="610" y="490" width="80" height="80" as="geometry" />
        </mxCell>
        <mxCell id="03fbT5xsQfeBrdXa9sgE-110" style="edgeStyle=orthogonalEdgeStyle;rounded=0;orthogonalLoop=1;jettySize=auto;html=1;" parent="WIyWlLk6GJQsqaUBKTNV-1" source="03fbT5xsQfeBrdXa9sgE-10" edge="1">
          <mxGeometry relative="1" as="geometry">
            <mxPoint x="909.9999999999998" y="530" as="targetPoint" />
          </mxGeometry>
        </mxCell>
        <mxCell id="03fbT5xsQfeBrdXa9sgE-10" value="WHEEL_MoveBackward" style="rounded=1;whiteSpace=wrap;html=1;" parent="WIyWlLk6GJQsqaUBKTNV-1" vertex="1">
          <mxGeometry x="710" y="520" width="150" height="20" as="geometry" />
        </mxCell>
        <mxCell id="03fbT5xsQfeBrdXa9sgE-11" value="" style="edgeStyle=orthogonalEdgeStyle;rounded=0;orthogonalLoop=1;jettySize=auto;html=1;" parent="WIyWlLk6GJQsqaUBKTNV-1" source="03fbT5xsQfeBrdXa9sgE-12" target="03fbT5xsQfeBrdXa9sgE-13" edge="1">
          <mxGeometry relative="1" as="geometry" />
        </mxCell>
        <mxCell id="03fbT5xsQfeBrdXa9sgE-41" style="edgeStyle=orthogonalEdgeStyle;rounded=0;orthogonalLoop=1;jettySize=auto;html=1;exitX=0.5;exitY=1;exitDx=0;exitDy=0;entryX=0.5;entryY=0;entryDx=0;entryDy=0;" parent="WIyWlLk6GJQsqaUBKTNV-1" source="03fbT5xsQfeBrdXa9sgE-12" target="03fbT5xsQfeBrdXa9sgE-15" edge="1">
          <mxGeometry relative="1" as="geometry" />
        </mxCell>
        <mxCell id="03fbT5xsQfeBrdXa9sgE-12" value="&lt;br style=&quot;border-color: var(--border-color);&quot;&gt;command&lt;br style=&quot;border-color: var(--border-color);&quot;&gt;==&lt;br style=&quot;border-color: var(--border-color);&quot;&gt;&#39; &#39;" style="rhombus;whiteSpace=wrap;html=1;" parent="WIyWlLk6GJQsqaUBKTNV-1" vertex="1">
          <mxGeometry x="610" y="580" width="80" height="80" as="geometry" />
        </mxCell>
        <mxCell id="03fbT5xsQfeBrdXa9sgE-111" style="edgeStyle=orthogonalEdgeStyle;rounded=0;orthogonalLoop=1;jettySize=auto;html=1;" parent="WIyWlLk6GJQsqaUBKTNV-1" source="03fbT5xsQfeBrdXa9sgE-13" edge="1">
          <mxGeometry relative="1" as="geometry">
            <mxPoint x="909.9999999999998" y="620" as="targetPoint" />
          </mxGeometry>
        </mxCell>
        <mxCell id="03fbT5xsQfeBrdXa9sgE-13" value="WHEEL_Stop" style="rounded=1;whiteSpace=wrap;html=1;" parent="WIyWlLk6GJQsqaUBKTNV-1" vertex="1">
          <mxGeometry x="710" y="610" width="150" height="20" as="geometry" />
        </mxCell>
        <mxCell id="03fbT5xsQfeBrdXa9sgE-14" value="" style="edgeStyle=orthogonalEdgeStyle;rounded=0;orthogonalLoop=1;jettySize=auto;html=1;" parent="WIyWlLk6GJQsqaUBKTNV-1" source="03fbT5xsQfeBrdXa9sgE-15" target="03fbT5xsQfeBrdXa9sgE-16" edge="1">
          <mxGeometry relative="1" as="geometry" />
        </mxCell>
        <mxCell id="03fbT5xsQfeBrdXa9sgE-42" style="edgeStyle=orthogonalEdgeStyle;rounded=0;orthogonalLoop=1;jettySize=auto;html=1;exitX=0.5;exitY=1;exitDx=0;exitDy=0;entryX=0.5;entryY=0;entryDx=0;entryDy=0;" parent="WIyWlLk6GJQsqaUBKTNV-1" source="03fbT5xsQfeBrdXa9sgE-15" target="03fbT5xsQfeBrdXa9sgE-18" edge="1">
          <mxGeometry relative="1" as="geometry" />
        </mxCell>
        <mxCell id="03fbT5xsQfeBrdXa9sgE-15" value="&lt;br style=&quot;border-color: var(--border-color);&quot;&gt;command&lt;br style=&quot;border-color: var(--border-color);&quot;&gt;==&lt;br style=&quot;border-color: var(--border-color);&quot;&gt;&#39; &#39;" style="rhombus;whiteSpace=wrap;html=1;" parent="WIyWlLk6GJQsqaUBKTNV-1" vertex="1">
          <mxGeometry x="610" y="670" width="80" height="80" as="geometry" />
        </mxCell>
        <mxCell id="03fbT5xsQfeBrdXa9sgE-112" style="edgeStyle=orthogonalEdgeStyle;rounded=0;orthogonalLoop=1;jettySize=auto;html=1;" parent="WIyWlLk6GJQsqaUBKTNV-1" source="03fbT5xsQfeBrdXa9sgE-16" edge="1">
          <mxGeometry relative="1" as="geometry">
            <mxPoint x="909.9999999999998" y="710" as="targetPoint" />
          </mxGeometry>
        </mxCell>
        <mxCell id="03fbT5xsQfeBrdXa9sgE-16" value="WHEEL_MoveForwardRight" style="rounded=1;whiteSpace=wrap;html=1;" parent="WIyWlLk6GJQsqaUBKTNV-1" vertex="1">
          <mxGeometry x="710" y="700" width="160" height="20" as="geometry" />
        </mxCell>
        <mxCell id="03fbT5xsQfeBrdXa9sgE-17" value="" style="edgeStyle=orthogonalEdgeStyle;rounded=0;orthogonalLoop=1;jettySize=auto;html=1;" parent="WIyWlLk6GJQsqaUBKTNV-1" source="03fbT5xsQfeBrdXa9sgE-18" target="03fbT5xsQfeBrdXa9sgE-19" edge="1">
          <mxGeometry relative="1" as="geometry" />
        </mxCell>
        <mxCell id="03fbT5xsQfeBrdXa9sgE-43" style="edgeStyle=orthogonalEdgeStyle;rounded=0;orthogonalLoop=1;jettySize=auto;html=1;exitX=0.5;exitY=1;exitDx=0;exitDy=0;entryX=0.5;entryY=0;entryDx=0;entryDy=0;" parent="WIyWlLk6GJQsqaUBKTNV-1" source="03fbT5xsQfeBrdXa9sgE-18" target="03fbT5xsQfeBrdXa9sgE-21" edge="1">
          <mxGeometry relative="1" as="geometry" />
        </mxCell>
        <mxCell id="03fbT5xsQfeBrdXa9sgE-18" value="&lt;br style=&quot;border-color: var(--border-color);&quot;&gt;command&lt;br style=&quot;border-color: var(--border-color);&quot;&gt;==&lt;br style=&quot;border-color: var(--border-color);&quot;&gt;&#39; &#39;" style="rhombus;whiteSpace=wrap;html=1;" parent="WIyWlLk6GJQsqaUBKTNV-1" vertex="1">
          <mxGeometry x="610" y="760" width="80" height="80" as="geometry" />
        </mxCell>
        <mxCell id="03fbT5xsQfeBrdXa9sgE-113" style="edgeStyle=orthogonalEdgeStyle;rounded=0;orthogonalLoop=1;jettySize=auto;html=1;" parent="WIyWlLk6GJQsqaUBKTNV-1" source="03fbT5xsQfeBrdXa9sgE-19" edge="1">
          <mxGeometry relative="1" as="geometry">
            <mxPoint x="909.9999999999998" y="800" as="targetPoint" />
          </mxGeometry>
        </mxCell>
        <mxCell id="03fbT5xsQfeBrdXa9sgE-19" value="WHEEL_MoveForwardleft" style="rounded=1;whiteSpace=wrap;html=1;" parent="WIyWlLk6GJQsqaUBKTNV-1" vertex="1">
          <mxGeometry x="710" y="790" width="150" height="20" as="geometry" />
        </mxCell>
        <mxCell id="03fbT5xsQfeBrdXa9sgE-20" value="" style="edgeStyle=orthogonalEdgeStyle;rounded=0;orthogonalLoop=1;jettySize=auto;html=1;" parent="WIyWlLk6GJQsqaUBKTNV-1" source="03fbT5xsQfeBrdXa9sgE-21" target="03fbT5xsQfeBrdXa9sgE-22" edge="1">
          <mxGeometry relative="1" as="geometry" />
        </mxCell>
        <mxCell id="03fbT5xsQfeBrdXa9sgE-44" style="edgeStyle=orthogonalEdgeStyle;rounded=0;orthogonalLoop=1;jettySize=auto;html=1;exitX=0.5;exitY=1;exitDx=0;exitDy=0;entryX=0.5;entryY=0;entryDx=0;entryDy=0;" parent="WIyWlLk6GJQsqaUBKTNV-1" source="03fbT5xsQfeBrdXa9sgE-21" target="03fbT5xsQfeBrdXa9sgE-24" edge="1">
          <mxGeometry relative="1" as="geometry" />
        </mxCell>
        <mxCell id="03fbT5xsQfeBrdXa9sgE-21" value="&lt;br style=&quot;border-color: var(--border-color);&quot;&gt;command&lt;br style=&quot;border-color: var(--border-color);&quot;&gt;==&lt;br style=&quot;border-color: var(--border-color);&quot;&gt;&#39; &#39;" style="rhombus;whiteSpace=wrap;html=1;" parent="WIyWlLk6GJQsqaUBKTNV-1" vertex="1">
          <mxGeometry x="610" y="850" width="80" height="80" as="geometry" />
        </mxCell>
        <mxCell id="03fbT5xsQfeBrdXa9sgE-114" style="edgeStyle=orthogonalEdgeStyle;rounded=0;orthogonalLoop=1;jettySize=auto;html=1;" parent="WIyWlLk6GJQsqaUBKTNV-1" source="03fbT5xsQfeBrdXa9sgE-22" edge="1">
          <mxGeometry relative="1" as="geometry">
            <mxPoint x="909.9999999999998" y="890" as="targetPoint" />
          </mxGeometry>
        </mxCell>
        <mxCell id="03fbT5xsQfeBrdXa9sgE-22" value="WHEEL_MoveBackwardRight" style="rounded=1;whiteSpace=wrap;html=1;" parent="WIyWlLk6GJQsqaUBKTNV-1" vertex="1">
          <mxGeometry x="710" y="880" width="170" height="20" as="geometry" />
        </mxCell>
        <mxCell id="03fbT5xsQfeBrdXa9sgE-23" value="" style="edgeStyle=orthogonalEdgeStyle;rounded=0;orthogonalLoop=1;jettySize=auto;html=1;" parent="WIyWlLk6GJQsqaUBKTNV-1" source="03fbT5xsQfeBrdXa9sgE-24" target="03fbT5xsQfeBrdXa9sgE-25" edge="1">
          <mxGeometry relative="1" as="geometry" />
        </mxCell>
        <mxCell id="03fbT5xsQfeBrdXa9sgE-45" style="edgeStyle=orthogonalEdgeStyle;rounded=0;orthogonalLoop=1;jettySize=auto;html=1;exitX=0.5;exitY=1;exitDx=0;exitDy=0;entryX=0.5;entryY=0;entryDx=0;entryDy=0;" parent="WIyWlLk6GJQsqaUBKTNV-1" source="03fbT5xsQfeBrdXa9sgE-24" target="03fbT5xsQfeBrdXa9sgE-27" edge="1">
          <mxGeometry relative="1" as="geometry" />
        </mxCell>
        <mxCell id="03fbT5xsQfeBrdXa9sgE-24" value="&lt;br style=&quot;border-color: var(--border-color);&quot;&gt;command&lt;br style=&quot;border-color: var(--border-color);&quot;&gt;==&lt;br style=&quot;border-color: var(--border-color);&quot;&gt;&#39; &#39;" style="rhombus;whiteSpace=wrap;html=1;" parent="WIyWlLk6GJQsqaUBKTNV-1" vertex="1">
          <mxGeometry x="610" y="940" width="80" height="80" as="geometry" />
        </mxCell>
        <mxCell id="03fbT5xsQfeBrdXa9sgE-115" style="edgeStyle=orthogonalEdgeStyle;rounded=0;orthogonalLoop=1;jettySize=auto;html=1;" parent="WIyWlLk6GJQsqaUBKTNV-1" source="03fbT5xsQfeBrdXa9sgE-25" edge="1">
          <mxGeometry relative="1" as="geometry">
            <mxPoint x="909.9999999999998" y="980" as="targetPoint" />
          </mxGeometry>
        </mxCell>
        <mxCell id="03fbT5xsQfeBrdXa9sgE-25" value="WHEEL_MoveBackwardleft" style="rounded=1;whiteSpace=wrap;html=1;" parent="WIyWlLk6GJQsqaUBKTNV-1" vertex="1">
          <mxGeometry x="710" y="970" width="150" height="20" as="geometry" />
        </mxCell>
        <mxCell id="03fbT5xsQfeBrdXa9sgE-26" value="" style="edgeStyle=orthogonalEdgeStyle;rounded=0;orthogonalLoop=1;jettySize=auto;html=1;" parent="WIyWlLk6GJQsqaUBKTNV-1" source="03fbT5xsQfeBrdXa9sgE-27" target="03fbT5xsQfeBrdXa9sgE-28" edge="1">
          <mxGeometry relative="1" as="geometry" />
        </mxCell>
        <mxCell id="03fbT5xsQfeBrdXa9sgE-46" style="edgeStyle=orthogonalEdgeStyle;rounded=0;orthogonalLoop=1;jettySize=auto;html=1;exitX=0.5;exitY=1;exitDx=0;exitDy=0;entryX=0.5;entryY=0;entryDx=0;entryDy=0;" parent="WIyWlLk6GJQsqaUBKTNV-1" source="03fbT5xsQfeBrdXa9sgE-27" target="03fbT5xsQfeBrdXa9sgE-30" edge="1">
          <mxGeometry relative="1" as="geometry" />
        </mxCell>
        <mxCell id="03fbT5xsQfeBrdXa9sgE-27" value="&lt;br style=&quot;border-color: var(--border-color);&quot;&gt;command&lt;br style=&quot;border-color: var(--border-color);&quot;&gt;==&lt;br style=&quot;border-color: var(--border-color);&quot;&gt;&#39; &#39;" style="rhombus;whiteSpace=wrap;html=1;" parent="WIyWlLk6GJQsqaUBKTNV-1" vertex="1">
          <mxGeometry x="610" y="1030" width="80" height="80" as="geometry" />
        </mxCell>
        <mxCell id="03fbT5xsQfeBrdXa9sgE-116" style="edgeStyle=orthogonalEdgeStyle;rounded=0;orthogonalLoop=1;jettySize=auto;html=1;" parent="WIyWlLk6GJQsqaUBKTNV-1" source="03fbT5xsQfeBrdXa9sgE-28" edge="1">
          <mxGeometry relative="1" as="geometry">
            <mxPoint x="909.9999999999998" y="1070" as="targetPoint" />
          </mxGeometry>
        </mxCell>
        <mxCell id="03fbT5xsQfeBrdXa9sgE-28" value="WHEEL_TurnDirection" style="rounded=1;whiteSpace=wrap;html=1;" parent="WIyWlLk6GJQsqaUBKTNV-1" vertex="1">
          <mxGeometry x="710" y="1060" width="150" height="20" as="geometry" />
        </mxCell>
        <mxCell id="03fbT5xsQfeBrdXa9sgE-29" value="" style="edgeStyle=orthogonalEdgeStyle;rounded=0;orthogonalLoop=1;jettySize=auto;html=1;" parent="WIyWlLk6GJQsqaUBKTNV-1" source="03fbT5xsQfeBrdXa9sgE-30" target="03fbT5xsQfeBrdXa9sgE-31" edge="1">
          <mxGeometry relative="1" as="geometry" />
        </mxCell>
        <mxCell id="03fbT5xsQfeBrdXa9sgE-100" style="edgeStyle=orthogonalEdgeStyle;rounded=0;orthogonalLoop=1;jettySize=auto;html=1;exitX=0.5;exitY=1;exitDx=0;exitDy=0;entryX=0.5;entryY=0;entryDx=0;entryDy=0;" parent="WIyWlLk6GJQsqaUBKTNV-1" source="03fbT5xsQfeBrdXa9sgE-30" target="03fbT5xsQfeBrdXa9sgE-99" edge="1">
          <mxGeometry relative="1" as="geometry" />
        </mxCell>
        <mxCell id="03fbT5xsQfeBrdXa9sgE-30" value="&lt;br style=&quot;border-color: var(--border-color);&quot;&gt;command&lt;br style=&quot;border-color: var(--border-color);&quot;&gt;==&lt;br style=&quot;border-color: var(--border-color);&quot;&gt;&#39; &#39;" style="rhombus;whiteSpace=wrap;html=1;" parent="WIyWlLk6GJQsqaUBKTNV-1" vertex="1">
          <mxGeometry x="610" y="1120" width="80" height="80" as="geometry" />
        </mxCell>
        <mxCell id="03fbT5xsQfeBrdXa9sgE-117" style="edgeStyle=orthogonalEdgeStyle;rounded=0;orthogonalLoop=1;jettySize=auto;html=1;" parent="WIyWlLk6GJQsqaUBKTNV-1" source="03fbT5xsQfeBrdXa9sgE-31" edge="1">
          <mxGeometry relative="1" as="geometry">
            <mxPoint x="909.9999999999998" y="1160" as="targetPoint" />
          </mxGeometry>
        </mxCell>
        <mxCell id="03fbT5xsQfeBrdXa9sgE-31" value="WHEEL_SpeedUP" style="rounded=1;whiteSpace=wrap;html=1;" parent="WIyWlLk6GJQsqaUBKTNV-1" vertex="1">
          <mxGeometry x="710" y="1150" width="150" height="20" as="geometry" />
        </mxCell>
        <mxCell id="03fbT5xsQfeBrdXa9sgE-118" style="edgeStyle=orthogonalEdgeStyle;rounded=0;orthogonalLoop=1;jettySize=auto;html=1;" parent="WIyWlLk6GJQsqaUBKTNV-1" source="03fbT5xsQfeBrdXa9sgE-32" edge="1">
          <mxGeometry relative="1" as="geometry">
            <mxPoint x="909.9999999999998" y="1250" as="targetPoint" />
          </mxGeometry>
        </mxCell>
        <mxCell id="03fbT5xsQfeBrdXa9sgE-32" value="WHEEL_SpeedDOWN" style="rounded=1;whiteSpace=wrap;html=1;" parent="WIyWlLk6GJQsqaUBKTNV-1" vertex="1">
          <mxGeometry x="710" y="1240" width="150" height="20" as="geometry" />
        </mxCell>
        <mxCell id="03fbT5xsQfeBrdXa9sgE-64" style="edgeStyle=orthogonalEdgeStyle;rounded=0;orthogonalLoop=1;jettySize=auto;html=1;exitX=0.5;exitY=1;exitDx=0;exitDy=0;entryX=0.5;entryY=0;entryDx=0;entryDy=0;" parent="WIyWlLk6GJQsqaUBKTNV-1" source="03fbT5xsQfeBrdXa9sgE-63" target="03fbT5xsQfeBrdXa9sgE-3" edge="1">
          <mxGeometry relative="1" as="geometry" />
        </mxCell>
        <mxCell id="03fbT5xsQfeBrdXa9sgE-63" value="initialize Bluetooth" style="rounded=1;whiteSpace=wrap;html=1;" parent="WIyWlLk6GJQsqaUBKTNV-1" vertex="1">
          <mxGeometry x="590" y="200" width="120" height="60" as="geometry" />
        </mxCell>
        <mxCell id="03fbT5xsQfeBrdXa9sgE-70" style="edgeStyle=orthogonalEdgeStyle;rounded=0;orthogonalLoop=1;jettySize=auto;html=1;exitX=0.5;exitY=1;exitDx=0;exitDy=0;entryX=0.5;entryY=0;entryDx=0;entryDy=0;" parent="WIyWlLk6GJQsqaUBKTNV-1" source="03fbT5xsQfeBrdXa9sgE-67" target="03fbT5xsQfeBrdXa9sgE-69" edge="1">
          <mxGeometry relative="1" as="geometry" />
        </mxCell>
        <mxCell id="03fbT5xsQfeBrdXa9sgE-67" value="initialize Ultrasonic&lt;br&gt;initialize Servo" style="rounded=1;whiteSpace=wrap;html=1;" parent="WIyWlLk6GJQsqaUBKTNV-1" vertex="1">
          <mxGeometry x="130" y="200" width="120" height="60" as="geometry" />
        </mxCell>
        <mxCell id="03fbT5xsQfeBrdXa9sgE-76" style="edgeStyle=orthogonalEdgeStyle;rounded=0;orthogonalLoop=1;jettySize=auto;html=1;exitX=0.5;exitY=1;exitDx=0;exitDy=0;" parent="WIyWlLk6GJQsqaUBKTNV-1" source="03fbT5xsQfeBrdXa9sgE-69" target="03fbT5xsQfeBrdXa9sgE-71" edge="1">
          <mxGeometry relative="1" as="geometry" />
        </mxCell>
        <mxCell id="03fbT5xsQfeBrdXa9sgE-69" value="Read Forward Distance" style="rounded=1;whiteSpace=wrap;html=1;" parent="WIyWlLk6GJQsqaUBKTNV-1" vertex="1">
          <mxGeometry x="130" y="320" width="120" height="60" as="geometry" />
        </mxCell>
        <mxCell id="03fbT5xsQfeBrdXa9sgE-73" style="edgeStyle=orthogonalEdgeStyle;rounded=0;orthogonalLoop=1;jettySize=auto;html=1;exitX=1;exitY=0.5;exitDx=0;exitDy=0;entryX=0.5;entryY=0;entryDx=0;entryDy=0;" parent="WIyWlLk6GJQsqaUBKTNV-1" source="03fbT5xsQfeBrdXa9sgE-71" target="03fbT5xsQfeBrdXa9sgE-72" edge="1">
          <mxGeometry relative="1" as="geometry" />
        </mxCell>
        <mxCell id="03fbT5xsQfeBrdXa9sgE-85" style="edgeStyle=orthogonalEdgeStyle;rounded=0;orthogonalLoop=1;jettySize=auto;html=1;exitX=0;exitY=0.5;exitDx=0;exitDy=0;entryX=0.5;entryY=0;entryDx=0;entryDy=0;" parent="WIyWlLk6GJQsqaUBKTNV-1" source="03fbT5xsQfeBrdXa9sgE-71" target="03fbT5xsQfeBrdXa9sgE-81" edge="1">
          <mxGeometry relative="1" as="geometry" />
        </mxCell>
        <mxCell id="03fbT5xsQfeBrdXa9sgE-71" value="Forward Distance&amp;gt;30CM" style="rhombus;whiteSpace=wrap;html=1;" parent="WIyWlLk6GJQsqaUBKTNV-1" vertex="1">
          <mxGeometry x="130" y="420" width="120" height="110" as="geometry" />
        </mxCell>
        <mxCell id="03fbT5xsQfeBrdXa9sgE-93" style="edgeStyle=orthogonalEdgeStyle;rounded=0;orthogonalLoop=1;jettySize=auto;html=1;exitX=0.5;exitY=1;exitDx=0;exitDy=0;entryX=1;entryY=0.5;entryDx=0;entryDy=0;" parent="WIyWlLk6GJQsqaUBKTNV-1" source="03fbT5xsQfeBrdXa9sgE-72" target="03fbT5xsQfeBrdXa9sgE-74" edge="1">
          <mxGeometry relative="1" as="geometry" />
        </mxCell>
        <mxCell id="03fbT5xsQfeBrdXa9sgE-72" value="WHEEL_MoveForward" style="rounded=1;whiteSpace=wrap;html=1;" parent="WIyWlLk6GJQsqaUBKTNV-1" vertex="1">
          <mxGeometry x="280" y="675" width="140" height="30" as="geometry" />
        </mxCell>
        <mxCell id="03fbT5xsQfeBrdXa9sgE-94" style="edgeStyle=orthogonalEdgeStyle;rounded=0;orthogonalLoop=1;jettySize=auto;html=1;exitX=0.5;exitY=1;exitDx=0;exitDy=0;" parent="WIyWlLk6GJQsqaUBKTNV-1" source="03fbT5xsQfeBrdXa9sgE-74" edge="1">
          <mxGeometry relative="1" as="geometry">
            <mxPoint x="190" y="280" as="targetPoint" />
            <Array as="points">
              <mxPoint x="190" y="1170" />
              <mxPoint x="-230" y="1170" />
            </Array>
          </mxGeometry>
        </mxCell>
        <mxCell id="03fbT5xsQfeBrdXa9sgE-74" value="WAIT 0.5 SEC" style="rounded=1;whiteSpace=wrap;html=1;" parent="WIyWlLk6GJQsqaUBKTNV-1" vertex="1">
          <mxGeometry x="130" y="1110" width="120" height="40" as="geometry" />
        </mxCell>
        <mxCell id="03fbT5xsQfeBrdXa9sgE-86" style="edgeStyle=orthogonalEdgeStyle;rounded=0;orthogonalLoop=1;jettySize=auto;html=1;exitX=0.5;exitY=1;exitDx=0;exitDy=0;entryX=0.5;entryY=0;entryDx=0;entryDy=0;" parent="WIyWlLk6GJQsqaUBKTNV-1" source="03fbT5xsQfeBrdXa9sgE-81" target="03fbT5xsQfeBrdXa9sgE-82" edge="1">
          <mxGeometry relative="1" as="geometry" />
        </mxCell>
        <mxCell id="03fbT5xsQfeBrdXa9sgE-81" value="WHEEL_MoveBackword&lt;br&gt;Wait 0.5 Sec&lt;br&gt;WHEEL_Stop&lt;br&gt;SERVO_Turn Right&lt;br&gt;Read Right Distance&lt;br&gt;Wait 0.5 Sec&lt;br&gt;SERVO_Turn Left&lt;br style=&quot;border-color: var(--border-color);&quot;&gt;Read Left Distance&lt;br style=&quot;border-color: var(--border-color);&quot;&gt;Wait 0.5 Sec" style="rounded=1;whiteSpace=wrap;html=1;" parent="WIyWlLk6GJQsqaUBKTNV-1" vertex="1">
          <mxGeometry x="-78" y="500" width="208" height="150" as="geometry" />
        </mxCell>
        <mxCell id="03fbT5xsQfeBrdXa9sgE-87" style="edgeStyle=orthogonalEdgeStyle;rounded=0;orthogonalLoop=1;jettySize=auto;html=1;exitX=1;exitY=0.5;exitDx=0;exitDy=0;entryX=0.5;entryY=0;entryDx=0;entryDy=0;" parent="WIyWlLk6GJQsqaUBKTNV-1" source="03fbT5xsQfeBrdXa9sgE-82" target="03fbT5xsQfeBrdXa9sgE-83" edge="1">
          <mxGeometry relative="1" as="geometry" />
        </mxCell>
        <mxCell id="03fbT5xsQfeBrdXa9sgE-88" style="edgeStyle=orthogonalEdgeStyle;rounded=0;orthogonalLoop=1;jettySize=auto;html=1;exitX=0;exitY=0.5;exitDx=0;exitDy=0;entryX=0.5;entryY=0;entryDx=0;entryDy=0;" parent="WIyWlLk6GJQsqaUBKTNV-1" source="03fbT5xsQfeBrdXa9sgE-82" target="03fbT5xsQfeBrdXa9sgE-84" edge="1">
          <mxGeometry relative="1" as="geometry" />
        </mxCell>
        <mxCell id="03fbT5xsQfeBrdXa9sgE-82" value="&lt;br&gt;&lt;span style=&quot;color: rgb(0, 0, 0); font-family: Helvetica; font-size: 12px; font-style: normal; font-variant-ligatures: normal; font-variant-caps: normal; font-weight: 400; letter-spacing: normal; orphans: 2; text-align: center; text-indent: 0px; text-transform: none; widows: 2; word-spacing: 0px; -webkit-text-stroke-width: 0px; background-color: rgb(251, 251, 251); text-decoration-thickness: initial; text-decoration-style: initial; text-decoration-color: initial; float: none; display: inline !important;&quot;&gt;Right Distance&amp;gt;&lt;/span&gt;Left Distance&lt;br&gt;" style="rhombus;whiteSpace=wrap;html=1;" parent="WIyWlLk6GJQsqaUBKTNV-1" vertex="1">
          <mxGeometry x="-39" y="690" width="130" height="110" as="geometry" />
        </mxCell>
        <mxCell id="03fbT5xsQfeBrdXa9sgE-90" style="edgeStyle=orthogonalEdgeStyle;rounded=0;orthogonalLoop=1;jettySize=auto;html=1;entryX=0;entryY=0.5;entryDx=0;entryDy=0;" parent="WIyWlLk6GJQsqaUBKTNV-1" source="03fbT5xsQfeBrdXa9sgE-83" target="03fbT5xsQfeBrdXa9sgE-74" edge="1">
          <mxGeometry relative="1" as="geometry">
            <Array as="points">
              <mxPoint x="160" y="890" />
              <mxPoint x="20" y="890" />
              <mxPoint x="20" y="1130" />
            </Array>
          </mxGeometry>
        </mxCell>
        <mxCell id="03fbT5xsQfeBrdXa9sgE-83" value="Servo back to Forward&lt;br&gt;WHEEL_MoveForwardRight&lt;br&gt;Wait 0.5 Sec&lt;br&gt;WHEEL_Stop" style="rounded=1;whiteSpace=wrap;html=1;" parent="WIyWlLk6GJQsqaUBKTNV-1" vertex="1">
          <mxGeometry x="70" y="790" width="180" height="80" as="geometry" />
        </mxCell>
        <mxCell id="03fbT5xsQfeBrdXa9sgE-92" style="edgeStyle=orthogonalEdgeStyle;rounded=0;orthogonalLoop=1;jettySize=auto;html=1;exitX=0.5;exitY=1;exitDx=0;exitDy=0;" parent="WIyWlLk6GJQsqaUBKTNV-1" source="03fbT5xsQfeBrdXa9sgE-84" edge="1">
          <mxGeometry relative="1" as="geometry">
            <mxPoint x="20" y="910" as="targetPoint" />
            <Array as="points">
              <mxPoint x="-130" y="890" />
              <mxPoint x="20" y="890" />
            </Array>
          </mxGeometry>
        </mxCell>
        <mxCell id="03fbT5xsQfeBrdXa9sgE-84" value="Servo back to Forward&lt;br style=&quot;border-color: var(--border-color);&quot;&gt;WHEEL_MoveForwardLeft&lt;br style=&quot;border-color: var(--border-color);&quot;&gt;Wait 0.5 Sec&lt;br style=&quot;border-color: var(--border-color);&quot;&gt;WHEEL_Stop" style="rounded=1;whiteSpace=wrap;html=1;" parent="WIyWlLk6GJQsqaUBKTNV-1" vertex="1">
          <mxGeometry x="-210" y="790" width="160" height="80" as="geometry" />
        </mxCell>
        <mxCell id="03fbT5xsQfeBrdXa9sgE-95" value="No" style="text;html=1;align=center;verticalAlign=middle;resizable=0;points=[];autosize=1;strokeColor=none;fillColor=none;" parent="WIyWlLk6GJQsqaUBKTNV-1" vertex="1">
          <mxGeometry x="420" y="108" width="40" height="30" as="geometry" />
        </mxCell>
        <mxCell id="03fbT5xsQfeBrdXa9sgE-96" value="Yes" style="text;html=1;align=center;verticalAlign=middle;resizable=0;points=[];autosize=1;strokeColor=none;fillColor=none;" parent="WIyWlLk6GJQsqaUBKTNV-1" vertex="1">
          <mxGeometry x="290" y="108" width="40" height="30" as="geometry" />
        </mxCell>
        <mxCell id="03fbT5xsQfeBrdXa9sgE-97" value="" style="edgeStyle=orthogonalEdgeStyle;rounded=0;orthogonalLoop=1;jettySize=auto;html=1;" parent="WIyWlLk6GJQsqaUBKTNV-1" source="03fbT5xsQfeBrdXa9sgE-3" target="03fbT5xsQfeBrdXa9sgE-5" edge="1">
          <mxGeometry relative="1" as="geometry">
            <mxPoint x="650" y="370" as="sourcePoint" />
            <mxPoint x="650" y="500" as="targetPoint" />
          </mxGeometry>
        </mxCell>
        <mxCell id="03fbT5xsQfeBrdXa9sgE-5" value="&lt;br&gt;command&lt;br&gt;==&lt;br&gt;&#39; &#39;" style="rhombus;whiteSpace=wrap;html=1;" parent="WIyWlLk6GJQsqaUBKTNV-1" vertex="1">
          <mxGeometry x="610" y="390" width="80" height="80" as="geometry" />
        </mxCell>
        <mxCell id="03fbT5xsQfeBrdXa9sgE-101" style="edgeStyle=orthogonalEdgeStyle;rounded=0;orthogonalLoop=1;jettySize=auto;html=1;exitX=1;exitY=0.5;exitDx=0;exitDy=0;entryX=0;entryY=0.5;entryDx=0;entryDy=0;" parent="WIyWlLk6GJQsqaUBKTNV-1" source="03fbT5xsQfeBrdXa9sgE-99" target="03fbT5xsQfeBrdXa9sgE-32" edge="1">
          <mxGeometry relative="1" as="geometry" />
        </mxCell>
        <mxCell id="03fbT5xsQfeBrdXa9sgE-105" style="edgeStyle=orthogonalEdgeStyle;rounded=0;orthogonalLoop=1;jettySize=auto;html=1;entryX=0;entryY=0.5;entryDx=0;entryDy=0;" parent="WIyWlLk6GJQsqaUBKTNV-1" source="03fbT5xsQfeBrdXa9sgE-99" target="03fbT5xsQfeBrdXa9sgE-102" edge="1">
          <mxGeometry relative="1" as="geometry">
            <Array as="points">
              <mxPoint x="650" y="1330" />
            </Array>
          </mxGeometry>
        </mxCell>
        <mxCell id="03fbT5xsQfeBrdXa9sgE-99" value="&lt;br style=&quot;border-color: var(--border-color); color: rgb(0, 0, 0); font-family: Helvetica; font-size: 12px; font-style: normal; font-variant-ligatures: normal; font-variant-caps: normal; font-weight: 400; letter-spacing: normal; orphans: 2; text-align: center; text-indent: 0px; text-transform: none; widows: 2; word-spacing: 0px; -webkit-text-stroke-width: 0px; background-color: rgb(251, 251, 251); text-decoration-thickness: initial; text-decoration-style: initial; text-decoration-color: initial;&quot;&gt;&lt;span style=&quot;color: rgb(0, 0, 0); font-family: Helvetica; font-size: 12px; font-style: normal; font-variant-ligatures: normal; font-variant-caps: normal; font-weight: 400; letter-spacing: normal; orphans: 2; text-align: center; text-indent: 0px; text-transform: none; widows: 2; word-spacing: 0px; -webkit-text-stroke-width: 0px; background-color: rgb(251, 251, 251); text-decoration-thickness: initial; text-decoration-style: initial; text-decoration-color: initial; float: none; display: inline !important;&quot;&gt;command&lt;/span&gt;&lt;br style=&quot;border-color: var(--border-color); color: rgb(0, 0, 0); font-family: Helvetica; font-size: 12px; font-style: normal; font-variant-ligatures: normal; font-variant-caps: normal; font-weight: 400; letter-spacing: normal; orphans: 2; text-align: center; text-indent: 0px; text-transform: none; widows: 2; word-spacing: 0px; -webkit-text-stroke-width: 0px; background-color: rgb(251, 251, 251); text-decoration-thickness: initial; text-decoration-style: initial; text-decoration-color: initial;&quot;&gt;&lt;span style=&quot;color: rgb(0, 0, 0); font-family: Helvetica; font-size: 12px; font-style: normal; font-variant-ligatures: normal; font-variant-caps: normal; font-weight: 400; letter-spacing: normal; orphans: 2; text-align: center; text-indent: 0px; text-transform: none; widows: 2; word-spacing: 0px; -webkit-text-stroke-width: 0px; background-color: rgb(251, 251, 251); text-decoration-thickness: initial; text-decoration-style: initial; text-decoration-color: initial; float: none; display: inline !important;&quot;&gt;==&lt;/span&gt;&lt;br style=&quot;border-color: var(--border-color); color: rgb(0, 0, 0); font-family: Helvetica; font-size: 12px; font-style: normal; font-variant-ligatures: normal; font-variant-caps: normal; font-weight: 400; letter-spacing: normal; orphans: 2; text-align: center; text-indent: 0px; text-transform: none; widows: 2; word-spacing: 0px; -webkit-text-stroke-width: 0px; background-color: rgb(251, 251, 251); text-decoration-thickness: initial; text-decoration-style: initial; text-decoration-color: initial;&quot;&gt;&lt;span style=&quot;color: rgb(0, 0, 0); font-family: Helvetica; font-size: 12px; font-style: normal; font-variant-ligatures: normal; font-variant-caps: normal; font-weight: 400; letter-spacing: normal; orphans: 2; text-align: center; text-indent: 0px; text-transform: none; widows: 2; word-spacing: 0px; -webkit-text-stroke-width: 0px; background-color: rgb(251, 251, 251); text-decoration-thickness: initial; text-decoration-style: initial; text-decoration-color: initial; float: none; display: inline !important;&quot;&gt;&#39; &#39;&lt;/span&gt;&lt;br&gt;" style="rhombus;whiteSpace=wrap;html=1;" parent="WIyWlLk6GJQsqaUBKTNV-1" vertex="1">
          <mxGeometry x="610" y="1210" width="80" height="80" as="geometry" />
        </mxCell>
        <mxCell id="03fbT5xsQfeBrdXa9sgE-106" style="edgeStyle=orthogonalEdgeStyle;rounded=0;orthogonalLoop=1;jettySize=auto;html=1;" parent="WIyWlLk6GJQsqaUBKTNV-1" source="03fbT5xsQfeBrdXa9sgE-102" edge="1">
          <mxGeometry relative="1" as="geometry">
            <mxPoint x="650" y="290" as="targetPoint" />
            <Array as="points">
              <mxPoint x="911" y="1330" />
              <mxPoint x="911" y="290" />
              <mxPoint x="660" y="290" />
            </Array>
          </mxGeometry>
        </mxCell>
        <mxCell id="03fbT5xsQfeBrdXa9sgE-102" value="Keep Last Wheel Statue" style="rounded=1;whiteSpace=wrap;html=1;" parent="WIyWlLk6GJQsqaUBKTNV-1" vertex="1">
          <mxGeometry x="710" y="1320" width="150" height="20" as="geometry" />
        </mxCell>
        <mxCell id="03fbT5xsQfeBrdXa9sgE-120" value="Yes" style="text;html=1;align=center;verticalAlign=middle;resizable=0;points=[];autosize=1;strokeColor=none;fillColor=none;" parent="WIyWlLk6GJQsqaUBKTNV-1" vertex="1">
          <mxGeometry x="90" y="718" width="40" height="30" as="geometry" />
        </mxCell>
        <mxCell id="03fbT5xsQfeBrdXa9sgE-121" value="No" style="text;html=1;align=center;verticalAlign=middle;resizable=0;points=[];autosize=1;strokeColor=none;fillColor=none;" parent="WIyWlLk6GJQsqaUBKTNV-1" vertex="1">
          <mxGeometry x="-78" y="718" width="40" height="30" as="geometry" />
        </mxCell>
        <mxCell id="03fbT5xsQfeBrdXa9sgE-124" value="No" style="text;html=1;align=center;verticalAlign=middle;resizable=0;points=[];autosize=1;strokeColor=none;fillColor=none;" parent="WIyWlLk6GJQsqaUBKTNV-1" vertex="1">
          <mxGeometry x="70" y="438" width="40" height="30" as="geometry" />
        </mxCell>
        <mxCell id="03fbT5xsQfeBrdXa9sgE-125" value="Yes" style="text;html=1;align=center;verticalAlign=middle;resizable=0;points=[];autosize=1;strokeColor=none;fillColor=none;" parent="WIyWlLk6GJQsqaUBKTNV-1" vertex="1">
          <mxGeometry x="260" y="438" width="40" height="30" as="geometry" />
        </mxCell>
        <mxCell id="03fbT5xsQfeBrdXa9sgE-126" value="Yes" style="text;html=1;align=center;verticalAlign=middle;resizable=0;points=[];autosize=1;strokeColor=none;fillColor=none;" parent="WIyWlLk6GJQsqaUBKTNV-1" vertex="1">
          <mxGeometry x="670" y="388" width="40" height="30" as="geometry" />
        </mxCell>
        <mxCell id="03fbT5xsQfeBrdXa9sgE-127" value="Yes" style="text;html=1;align=center;verticalAlign=middle;resizable=0;points=[];autosize=1;strokeColor=none;fillColor=none;" parent="WIyWlLk6GJQsqaUBKTNV-1" vertex="1">
          <mxGeometry x="670" y="490" width="40" height="30" as="geometry" />
        </mxCell>
        <mxCell id="03fbT5xsQfeBrdXa9sgE-128" value="Yes" style="text;html=1;align=center;verticalAlign=middle;resizable=0;points=[];autosize=1;strokeColor=none;fillColor=none;" parent="WIyWlLk6GJQsqaUBKTNV-1" vertex="1">
          <mxGeometry x="670" y="580" width="40" height="30" as="geometry" />
        </mxCell>
        <mxCell id="03fbT5xsQfeBrdXa9sgE-129" value="Yes" style="text;html=1;align=center;verticalAlign=middle;resizable=0;points=[];autosize=1;strokeColor=none;fillColor=none;" parent="WIyWlLk6GJQsqaUBKTNV-1" vertex="1">
          <mxGeometry x="680" y="675" width="40" height="30" as="geometry" />
        </mxCell>
        <mxCell id="03fbT5xsQfeBrdXa9sgE-130" value="Yes" style="text;html=1;align=center;verticalAlign=middle;resizable=0;points=[];autosize=1;strokeColor=none;fillColor=none;" parent="WIyWlLk6GJQsqaUBKTNV-1" vertex="1">
          <mxGeometry x="670" y="760" width="40" height="30" as="geometry" />
        </mxCell>
        <mxCell id="03fbT5xsQfeBrdXa9sgE-132" value="Yes" style="text;html=1;align=center;verticalAlign=middle;resizable=0;points=[];autosize=1;strokeColor=none;fillColor=none;" parent="WIyWlLk6GJQsqaUBKTNV-1" vertex="1">
          <mxGeometry x="670" y="860" width="40" height="30" as="geometry" />
        </mxCell>
        <mxCell id="03fbT5xsQfeBrdXa9sgE-133" value="Yes" style="text;html=1;align=center;verticalAlign=middle;resizable=0;points=[];autosize=1;strokeColor=none;fillColor=none;" parent="WIyWlLk6GJQsqaUBKTNV-1" vertex="1">
          <mxGeometry x="670" y="950" width="40" height="30" as="geometry" />
        </mxCell>
        <mxCell id="03fbT5xsQfeBrdXa9sgE-134" value="Yes" style="text;html=1;align=center;verticalAlign=middle;resizable=0;points=[];autosize=1;strokeColor=none;fillColor=none;" parent="WIyWlLk6GJQsqaUBKTNV-1" vertex="1">
          <mxGeometry x="670" y="1040" width="40" height="30" as="geometry" />
        </mxCell>
        <mxCell id="03fbT5xsQfeBrdXa9sgE-135" value="Yes" style="text;html=1;align=center;verticalAlign=middle;resizable=0;points=[];autosize=1;strokeColor=none;fillColor=none;" parent="WIyWlLk6GJQsqaUBKTNV-1" vertex="1">
          <mxGeometry x="670" y="1130" width="40" height="30" as="geometry" />
        </mxCell>
        <mxCell id="03fbT5xsQfeBrdXa9sgE-136" value="Yes" style="text;html=1;align=center;verticalAlign=middle;resizable=0;points=[];autosize=1;strokeColor=none;fillColor=none;" parent="WIyWlLk6GJQsqaUBKTNV-1" vertex="1">
          <mxGeometry x="670" y="1220" width="40" height="30" as="geometry" />
        </mxCell>
        <mxCell id="03fbT5xsQfeBrdXa9sgE-138" value="No" style="text;html=1;align=center;verticalAlign=middle;resizable=0;points=[];autosize=1;strokeColor=none;fillColor=none;" parent="WIyWlLk6GJQsqaUBKTNV-1" vertex="1">
          <mxGeometry x="610" y="458" width="40" height="30" as="geometry" />
        </mxCell>
        <mxCell id="03fbT5xsQfeBrdXa9sgE-139" value="No" style="text;html=1;align=center;verticalAlign=middle;resizable=0;points=[];autosize=1;strokeColor=none;fillColor=none;" parent="WIyWlLk6GJQsqaUBKTNV-1" vertex="1">
          <mxGeometry x="610" y="560" width="40" height="30" as="geometry" />
        </mxCell>
        <mxCell id="03fbT5xsQfeBrdXa9sgE-140" value="No" style="text;html=1;align=center;verticalAlign=middle;resizable=0;points=[];autosize=1;strokeColor=none;fillColor=none;" parent="WIyWlLk6GJQsqaUBKTNV-1" vertex="1">
          <mxGeometry x="610" y="650" width="40" height="30" as="geometry" />
        </mxCell>
        <mxCell id="03fbT5xsQfeBrdXa9sgE-141" value="No" style="text;html=1;align=center;verticalAlign=middle;resizable=0;points=[];autosize=1;strokeColor=none;fillColor=none;" parent="WIyWlLk6GJQsqaUBKTNV-1" vertex="1">
          <mxGeometry x="610" y="740" width="40" height="30" as="geometry" />
        </mxCell>
        <mxCell id="03fbT5xsQfeBrdXa9sgE-142" value="No" style="text;html=1;align=center;verticalAlign=middle;resizable=0;points=[];autosize=1;strokeColor=none;fillColor=none;" parent="WIyWlLk6GJQsqaUBKTNV-1" vertex="1">
          <mxGeometry x="610" y="830" width="40" height="30" as="geometry" />
        </mxCell>
        <mxCell id="03fbT5xsQfeBrdXa9sgE-143" value="No" style="text;html=1;align=center;verticalAlign=middle;resizable=0;points=[];autosize=1;strokeColor=none;fillColor=none;" parent="WIyWlLk6GJQsqaUBKTNV-1" vertex="1">
          <mxGeometry x="610" y="920" width="40" height="30" as="geometry" />
        </mxCell>
        <mxCell id="03fbT5xsQfeBrdXa9sgE-144" value="No" style="text;html=1;align=center;verticalAlign=middle;resizable=0;points=[];autosize=1;strokeColor=none;fillColor=none;" parent="WIyWlLk6GJQsqaUBKTNV-1" vertex="1">
          <mxGeometry x="610" y="1010" width="40" height="30" as="geometry" />
        </mxCell>
        <mxCell id="03fbT5xsQfeBrdXa9sgE-145" value="No" style="text;html=1;align=center;verticalAlign=middle;resizable=0;points=[];autosize=1;strokeColor=none;fillColor=none;" parent="WIyWlLk6GJQsqaUBKTNV-1" vertex="1">
          <mxGeometry x="610" y="1100" width="40" height="30" as="geometry" />
        </mxCell>
        <mxCell id="03fbT5xsQfeBrdXa9sgE-146" value="No" style="text;html=1;align=center;verticalAlign=middle;resizable=0;points=[];autosize=1;strokeColor=none;fillColor=none;" parent="WIyWlLk6GJQsqaUBKTNV-1" vertex="1">
          <mxGeometry x="610" y="1190" width="40" height="30" as="geometry" />
        </mxCell>
        <mxCell id="03fbT5xsQfeBrdXa9sgE-147" value="No" style="text;html=1;align=center;verticalAlign=middle;resizable=0;points=[];autosize=1;strokeColor=none;fillColor=none;" parent="WIyWlLk6GJQsqaUBKTNV-1" vertex="1">
          <mxGeometry x="610" y="1290" width="40" height="30" as="geometry" />
        </mxCell>
        <mxCell id="zD_6RhIeCDicJwW1CbTD-1" style="edgeStyle=orthogonalEdgeStyle;rounded=0;orthogonalLoop=1;jettySize=auto;html=1;exitX=0.5;exitY=1;exitDx=0;exitDy=0;entryX=0.5;entryY=0;entryDx=0;entryDy=0;" parent="WIyWlLk6GJQsqaUBKTNV-1" source="zD_6RhIeCDicJwW1CbTD-0" target="WIyWlLk6GJQsqaUBKTNV-3" edge="1">
          <mxGeometry relative="1" as="geometry">
            <mxPoint x="379.7142857142858" y="10" as="targetPoint" />
          </mxGeometry>
        </mxCell>
        <mxCell id="zD_6RhIeCDicJwW1CbTD-0" value="Start" style="ellipse;whiteSpace=wrap;html=1;" parent="WIyWlLk6GJQsqaUBKTNV-1" vertex="1">
          <mxGeometry x="320" y="-60" width="120" height="40" as="geometry" />
        </mxCell>
      </root>
    </mxGraphModel>
  </diagram>
</mxfile>
